<svg xmlns="http://www.w3.org/2000/svg" viewBox="0 0 64 64"><g id="_29-light_bulbs" data-name="29-light bulbs"><path d="M32,57c4.97,0,9,0,9-2v1.44a3.693,3.693,0,0,1-3.03,3.41,4.776,4.776,0,0,1-1.21.15H27.24a4.776,4.776,0,0,1-1.21-.15A3.693,3.693,0,0,1,23,56.44V55C23,57,27.03,57,32,57Z" style="fill:#77848c"/><path d="M36.76,60a4.776,4.776,0,0,0,1.21-.15L38,60v1a2.006,2.006,0,0,1-2,2H28a2.006,2.006,0,0,1-2-2V60l.03-.15a4.776,4.776,0,0,0,1.21.15Z" style="fill:#2e3b41"/><path d="M23.03,51.91C24.2,52.44,26.69,53,32,53c5,0,7.5-.5,8.75-1H41v3c0,2-4.03,2-9,2s-9,0-9-2V52Z" style="fill:#a2adb3"/><path d="M38,60l-.03-.15a4.776,4.776,0,0,1-1.21.15H27.24a4.776,4.776,0,0,1-1.21-.15L26,60v1a1.96,1.96,0,0,0,.239.925A2,2,0,0,1,28,60.85h8a2,2,0,0,1,1.761,1.075A1.96,1.96,0,0,0,38,61Z" style="fill:#222c30"/><path d="M27,58V56.9c-2.411-.174-4-.641-4-1.9v1.44a3.693,3.693,0,0,0,3.03,3.41,4.776,4.776,0,0,0,1.21.15H29A2,2,0,0,1,27,58Z" style="fill:#9ea9af"/><path d="M37,56.9V58a2,2,0,0,1-2,2h1.76a4.776,4.776,0,0,0,1.21-.15A3.693,3.693,0,0,0,41,56.44V55C41,56.255,39.411,56.722,37,56.9Z" style="fill:#9ea9af"/><path d="M27,56.9V52.78a13.3,13.3,0,0,1-3.97-.87L23,52v3C23,56.255,24.589,56.722,27,56.9Z" style="fill:#bec5cd"/><path d="M40.75,52a14.451,14.451,0,0,1-3.75.778V56.9c2.411-.174,4-.641,4-1.9V52Z" style="fill:#bec5cd"/><path d="M37,58V56.9c-.616.045-1.289.069-2,.084V60A2,2,0,0,0,37,58Z" style="fill:#bec5cd"/><path d="M35,56.98c.711-.015,1.384-.039,2-.084h0V52.778h0c-.593.062-1.258.113-2,.151Z" style="fill:#dce4ed"/><path d="M40,57.143v-.837c-.033.015-.06.033-.094.047l-.015,0a4.607,4.607,0,0,1-.518.177c-.055.015-.116.029-.173.044-.146.037-.3.071-.458.1l-.209.038q-.257.043-.533.078V59.84a4.4,4.4,0,0,0,1.738-.869A1.977,1.977,0,0,0,40,58Z" style="fill:#bec5cd"/><path d="M39.693,52.333c-.121.03-.248.06-.382.09l-.027.006c-.374.081-.8.158-1.284.227V56.8c.184-.024.362-.049.533-.078l.209-.038c.16-.031.312-.065.458-.1.058-.015.118-.029.173-.044a4.607,4.607,0,0,0,.518-.177l.015,0c.035-.015.06-.035.094-.05V52.251l-.233.063Z" style="fill:#dce4ed"/><path d="M35,56.98c-.638.013-1.3.018-2,.019v3h2V56.98Z" style="fill:#9ea9af"/><path d="M35,56.98V52.929c-.613.031-1.275.053-2,.063V57C33.7,57,34.362,56.993,35,56.98Z" style="fill:#bec5cd"/><ellipse cx="39" cy="22" rx="3" ry="5" style="fill:#febd73"/><ellipse cx="25" cy="22" rx="3" ry="5" style="fill:#febd73"/><path d="M20.73,2.02l4.2,5.88A20.928,20.928,0,0,0,14,14.73v-.19a28,28,0,0,1,1.44-8.85l1.01-3.03a2.427,2.427,0,0,1,4.28-.64Z" style="fill:#febd73"/><path d="M50,14.54v.19a17.949,17.949,0,0,0-1.74-1.85A21.5,21.5,0,0,0,39.07,7.9l4.2-5.88a2.427,2.427,0,0,1,4.28.64l1.01,3.03A28,28,0,0,1,50,14.54Z" style="fill:#febd73"/><path d="M55,30a10.324,10.324,0,0,1-1.12,4C52.54,36.84,49.56,40.72,43,44H21c-6.56-3.28-9.54-7.16-10.88-10A10.324,10.324,0,0,1,9,30a28.467,28.467,0,0,1,.27-4A21.819,21.819,0,0,1,14,14.73,20.928,20.928,0,0,1,24.93,7.9a28.219,28.219,0,0,1,14.14,0,21.5,21.5,0,0,1,9.19,4.98A17.949,17.949,0,0,1,50,14.73,21.819,21.819,0,0,1,54.73,26,28.467,28.467,0,0,1,55,30ZM42,22c0-2.76-1.34-5-3-5s-3,2.24-3,5,1.34,5,3,5S42,24.76,42,22ZM28,22c0-2.76-1.34-5-3-5s-3,2.24-3,5,1.34,5,3,5S28,24.76,28,22Z" style="fill:#d9e6ec"/><path d="M43,44l-1,7s0,.5-1.25,1S37,53,32,53c-5.31,0-7.8-.56-8.97-1.09C22,51.44,22,51,22,51l-1-7Z" style="fill:#a4c9d6"/><path d="M32,50.2c-5.793,0-8.509-.585-9.785-1.138a3.805,3.805,0,0,1-.533-.282L22,51s0,.44,1.03.91C24.2,52.44,26.69,53,32,53c5,0,7.5-.5,8.75-1S42,51,42,51l.317-2.222a4.329,4.329,0,0,1-.772.374C40.182,49.674,37.455,50.2,32,50.2Z" style="fill:#8dbbc9"/><path d="M41,38H23A13.993,13.993,0,0,1,9.225,26.433,28.735,28.735,0,0,0,9,30a10.324,10.324,0,0,0,1.12,4c1.34,2.84,4.32,6.72,10.88,10H43c6.56-3.28,9.54-7.16,10.88-10A10.324,10.324,0,0,0,55,30a28.735,28.735,0,0,0-.225-3.567A13.993,13.993,0,0,1,41,38Z" style="fill:#b4d3e0"/><path d="M12.015,25.394c.252-1.989,2.016-13.009,10.353-14.376a1.535,1.535,0,0,1,1.481,2.234c-1.735,3.809-5.008,11.423-5.885,16.463a1.42,1.42,0,0,1-2.206,1.029,8.922,8.922,0,0,1-3.717-4.758A1.636,1.636,0,0,1,12.015,25.394Z" style="fill:#f1f9ff"/><path d="M39,25c-1.454,0-2.662-1.719-2.94-4A8.343,8.343,0,0,0,36,22c0,2.76,1.34,5,3,5s3-2.24,3-5a8.343,8.343,0,0,0-.06-1C41.662,23.281,40.454,25,39,25Z" style="fill:#fc8e52"/><path d="M45.963,20.508a8.425,8.425,0,0,1,3.113,1.274,1.216,1.216,0,0,0,1.844-1.406,11.936,11.936,0,0,0-5.468-6.216,1.225,1.225,0,0,0-.851-.136l-.62.123a1.2,1.2,0,0,0-.713,1.938,7.837,7.837,0,0,1,1.7,3.4A1.248,1.248,0,0,0,45.963,20.508Z" style="fill:#f1f9ff"/><path d="M25,25c-1.454,0-2.662-1.719-2.94-4A8.343,8.343,0,0,0,22,22c0,2.76,1.34,5,3,5s3-2.24,3-5a8.343,8.343,0,0,0-.06-1C27.662,23.281,26.454,25,25,25Z" style="fill:#fc8e52"/><path d="M39.006,19.312a1.37,1.37,0,0,0,.148.436q.453.945.961,1.825c.136.237.324.494.525.411s.276-.447.308-.756a5.611,5.611,0,0,0-.07-1.964c-.153-.587-.592-1.214-1.033-1.262C39.476,17.961,38.938,18.748,39.006,19.312Z" style="fill:#eaeff5"/><path d="M25.006,19.312a1.37,1.37,0,0,0,.148.436q.453.945.961,1.825c.136.237.324.494.525.411s.276-.447.308-.756a5.611,5.611,0,0,0-.07-1.964c-.153-.587-.592-1.214-1.033-1.262C25.476,17.961,24.938,18.748,25.006,19.312Z" style="fill:#eaeff5"/><path d="M18.75,1a2.411,2.411,0,0,0-.911.186,2.012,2.012,0,0,1,.864.705L20.673,4.8a1.979,1.979,0,0,1-.927,2.962,12.574,12.574,0,0,0-5.567,3.814A27.712,27.712,0,0,0,14,14.54v.19A20.928,20.928,0,0,1,24.93,7.9l-4.2-5.88A2.445,2.445,0,0,0,18.75,1Z" style="fill:#fc8e52"/><path d="M44.27,7.759A1.979,1.979,0,0,1,43.344,4.8l1.97-2.906a2,2,0,0,1,.855-.7A2.394,2.394,0,0,0,45.25,1a2.445,2.445,0,0,0-1.98,1.02L39.07,7.9a21.5,21.5,0,0,1,9.19,4.98A17.949,17.949,0,0,1,50,14.73v-.19a27.682,27.682,0,0,0-.182-2.993A12.617,12.617,0,0,0,44.27,7.759Z" style="fill:#fc8e52"/><path d="M46.035,5.022l.188,1.049a3.574,3.574,0,0,0,.351,1.165,1.52,1.52,0,0,0,1.036.757.244.244,0,0,0,.169-.017.234.234,0,0,0,.082-.143,4.055,4.055,0,0,0-.371-3.018C47.312,4.5,46.9,4,46.463,4,45.931,4.005,45.974,4.676,46.035,5.022Z" style="fill:#eaeff5"/><path d="M17.965,5.022l-.188,1.049a3.574,3.574,0,0,1-.351,1.165,1.52,1.52,0,0,1-1.036.757.244.244,0,0,1-.169-.017.234.234,0,0,1-.082-.143,4.055,4.055,0,0,1,.371-3.018C16.688,4.5,17.1,4,17.537,4,18.069,4.005,18.026,4.676,17.965,5.022Z" style="fill:#eaeff5"/><path d="M39,16c-2.243,0-4,2.636-4,6s1.757,6,4,6,4-2.636,4-6S41.243,16,39,16Zm0,10c-.944,0-2-1.711-2-4s1.056-4,2-4,2,1.711,2,4S39.944,26,39,26Z"/><path d="M25,16c-2.243,0-4,2.636-4,6s1.757,6,4,6,4-2.636,4-6S27.243,16,25,16Zm0,10c-.944,0-2-1.711-2-4s1.056-4,2-4,2,1.711,2,4S25.944,26,25,26Z"/><path d="M51,14.444a29,29,0,0,0-1.484-9.071L48.5,2.344a3.428,3.428,0,0,0-6.042-.908L38.643,6.78a28.678,28.678,0,0,0-13.286,0L21.54,1.435a3.429,3.429,0,0,0-6.042.909L14.487,5.373A29.025,29.025,0,0,0,13,14.444,24.667,24.667,0,0,0,8,30c0,.348.139,8.478,12.084,14.656L21,51.093a1.83,1.83,0,0,0,1,1.4v3.951a4.556,4.556,0,0,0,3,4.1V61a3,3,0,0,0,3,3h8a3,3,0,0,0,3-3v-.453a4.556,4.556,0,0,0,3-4.1V52.491a1.834,1.834,0,0,0,1-1.4l.919-6.435C55.861,38.478,56,30.348,56,30A24.667,24.667,0,0,0,51,14.444ZM44.087,2.6a1.428,1.428,0,0,1,2.518.378l1.009,3.029a26.941,26.941,0,0,1,1.275,6.166,21.97,21.97,0,0,0-8.2-4.811Zm-27.7,3.407L17.4,2.977A1.429,1.429,0,0,1,19.913,2.6l3.4,4.763a21.97,21.97,0,0,0-8.2,4.811A26.993,26.993,0,0,1,16.385,6.006ZM37,61a1,1,0,0,1-1,1H28a1,1,0,0,1-1-1v-.021c.08,0,.155.021.235.021h9.53c.08,0,.155-.018.235-.021Zm-.235-2h-9.53a3.351,3.351,0,0,1-2.959-1.531C26.1,58,28.865,58,32,58s5.9,0,7.724-.531A3.351,3.351,0,0,1,36.765,59Zm5.991-16H40v2h1.847l-.817,5.716C40.758,50.948,39.129,52,32,52v2a33.7,33.7,0,0,0,8-.715V55c0,1-5.008,1-8,1s-8,0-8-1V53.287a17.2,17.2,0,0,0,1.858.36l.284-1.98c-2.291-.327-3-.8-3.172-.951L22.153,45H38V43H21.244c-5.16-2.621-7.955-5.571-9.465-8H19V33H10.747a10.772,10.772,0,0,1-.62-2H19V29H10.041c.023-.679.061-1.348.129-2H19V25H10.445C12.355,14.525,20.389,8,32,8s19.647,6.526,21.556,17H45v2h8.83c.068.652.107,1.321.129,2H45v2h8.872a10.749,10.749,0,0,1-.62,2H45v2h7.22C50.711,37.429,47.916,40.379,42.756,43Z"/><path d="M27.926,53.865c.616.046,1.3.082,2.044.106l.06-2c-.715-.022-1.365-.056-1.956-.1Z"/></g></svg>